<?xml version="1.0" encoding="utf-8"?>
<!-- Generated by IcoMoon.io -->
<!DOCTYPE svg PUBLIC "-//W3C//DTD SVG 1.1//EN" "http://www.w3.org/Graphics/SVG/1.1/DTD/svg11.dtd">
<svg version="1.1" xmlns="http://www.w3.org/2000/svg" xmlns:xlink="http://www.w3.org/1999/xlink" width="24" height="24" viewBox="0 0 24 24">
<path fill="#2f323d" d="M15.934 12.619c-0.721-0.909-1.643-1.317-2.571-1.155l-0.435-2.008c0.909-1.086 1.684-2.275 1.983-3.739 0.176-0.875 0.146-1.76-0.084-2.492-0.217-0.687-0.585-1.156-1.010-1.288-0.59-0.183-1.181 0.311-1.625 1.354-0.417 0.98-0.592 1.981-0.178 3.94l0.174 0.824c-1.354 1.223-2.998 2.745-3.175 4.936-0.105 1.305 0.452 2.545 1.531 3.399 1.049 0.832 2.371 1.134 3.589 0.835l0.35 1.651c0.184 0.868 0.037 1.97-0.707 2.475-0.245 0.166-0.955 0.32-1.506 0.184-0.224-0.055-0.375-0.159-0.475-0.293 0.025 0.002 0.049 0.009 0.076 0.010h0.022c0.646 0 1.182-0.534 1.192-1.19 0.007-0.324-0.112-0.631-0.333-0.864s-0.518-0.365-0.836-0.371h-0.022c-0.646 0-1.181 0.535-1.193 1.19-0.001 0.050 0.007 0.096 0.012 0.145 0.002 0.032 0.003 0.063 0.008 0.098 0 0.002 0.001 0.005 0.001 0.007 0.045 0.314 0.2 0.67 0.438 0.967 0.383 0.477 0.921 0.75 1.515 0.769 0.034 0.001 0.067 0.002 0.101 0.002 0.74 0 1.365-0.27 1.769-0.765 0.496-0.605 0.631-1.513 0.381-2.554l-0.347-1.604c0.755-0.324 1.384-1.075 1.669-2.011 0.281-0.928 0.164-1.845-0.314-2.452zM11.132 16.092c-1.101-1-1.552-2.911-0.361-4.256 0.29-0.326 0.593-0.652 0.886-0.968 0.307-0.329 0.616-0.661 0.915-1.001l0.363 1.71c-1.032 0.372-1.805 1.392-1.801 2.382 0.002 0.537 0.243 1.522 1.83 2.064l0.030-0.054c-0.441-0.348-0.783-0.641-0.843-0.992-0.211-1.243 0.348-1.753 0.7-1.945 0.115-0.063 0.236-0.11 0.364-0.142l0.812 3.829c-0.072 0.021-0.145 0.040-0.219 0.057-0.955 0.21-1.98-0.052-2.676-0.684zM14.461 16.541l-0.801-3.7c0.453 0.007 0.92 0.179 1.273 0.5 0.613 0.558 0.736 1.417 0.334 2.36-0.148 0.35-0.429 0.64-0.806 0.84zM12.539 4.768c0.293-0.821 0.913-1.323 1.344-1.378 0.025-0.003 0.049-0.004 0.070-0.004 0.113 0 0.2 0.038 0.249 0.111 0.007 0.010 0.622 0.956-0.505 2.973-0.211 0.378-0.637 0.791-1.146 1.256l-0.096-0.443c-0.271-1.254-0.11-1.975 0.084-2.515z"></path>
</svg>
