<?xml version="1.0" encoding="utf-8"?>
<!-- Generated by IcoMoon.io -->
<!DOCTYPE svg PUBLIC "-//W3C//DTD SVG 1.1//EN" "http://www.w3.org/Graphics/SVG/1.1/DTD/svg11.dtd">
<svg version="1.1" xmlns="http://www.w3.org/2000/svg" xmlns:xlink="http://www.w3.org/1999/xlink" width="24" height="24" viewBox="0 0 24 24">
<path fill="#2f323d" d="M12 19.235l-7.515-6.98c-0.845-0.923-1.285-2.062-1.285-3.255 0-2.647 2.153-4.8 4.8-4.8 1.667 0 3.139 0.854 4 2.149 0.861-1.294 2.332-2.149 4-2.149 2.646 0 4.8 2.153 4.8 4.8 0 1.193-0.439 2.332-1.236 3.207l-7.564 7.028zM8 5.8c-1.765 0-3.2 1.435-3.2 3.2 0 0.793 0.292 1.549 0.82 2.129l6.38 5.923 6.429-5.971c0.48-0.532 0.771-1.288 0.771-2.081 0-1.765-1.436-3.2-3.2-3.2s-3.2 1.435-3.2 3.2h-1.6c0-1.765-1.435-3.2-3.2-3.2z"></path>
</svg>
