<?xml version="1.0" encoding="utf-8"?>
<!-- Generated by IcoMoon.io -->
<!DOCTYPE svg PUBLIC "-//W3C//DTD SVG 1.1//EN" "http://www.w3.org/Graphics/SVG/1.1/DTD/svg11.dtd">
<svg version="1.1" xmlns="http://www.w3.org/2000/svg" xmlns:xlink="http://www.w3.org/1999/xlink" width="24" height="24" viewBox="0 0 24 24">
<path fill="#2f323d" d="M12.004 2c-5.523 0-10 4.477-10 10s4.477 10 10 10c5.523 0 10-4.477 10-10s-4.477-10-10-10zM12.004 20.4c-4.632 0-8.4-3.769-8.4-8.4s3.768-8.4 8.4-8.4 8.4 3.768 8.4 8.4-3.768 8.4-8.4 8.4z"></path>
<path fill="#2f323d" d="M13.5 12c0 0.828-0.672 1.5-1.5 1.5s-1.5-0.672-1.5-1.5c0-0.828 0.672-1.5 1.5-1.5s1.5 0.672 1.5 1.5z"></path>
<path fill="#2f323d" d="M12.004 6.2c-3.198 0-5.8 2.602-5.8 5.8h1.6c0-2.316 1.884-4.2 4.2-4.2v-1.6z"></path>
<path fill="#2f323d" d="M12.004 16.2v1.6c3.198 0 5.8-2.602 5.8-5.8h-1.6c0 2.315-1.885 4.2-4.2 4.2z"></path>
</svg>
