<?xml version="1.0" encoding="utf-8"?>
<!-- Generated by IcoMoon.io -->
<!DOCTYPE svg PUBLIC "-//W3C//DTD SVG 1.1//EN" "http://www.w3.org/Graphics/SVG/1.1/DTD/svg11.dtd">
<svg version="1.1" xmlns="http://www.w3.org/2000/svg" xmlns:xlink="http://www.w3.org/1999/xlink" width="24" height="24" viewBox="0 0 24 24">
<path fill="#2f323d" d="M19.5 12c0-0.47-0.040-0.92-0.13-1.36l2.54-1.47-2.5-4.34-2.55 1.47c-0.69-0.6-1.49-1.060-2.36-1.36v-2.94h-5v2.94c-0.87 0.3-1.67 0.76-2.36 1.36l-2.55-1.47-2.5 4.34 2.54 1.47c-0.090 0.44-0.13 0.89-0.13 1.36s0.040 0.92 0.13 1.36l-2.54 1.47 2.5 4.34 2.55-1.47c0.69 0.6 1.49 1.060 2.36 1.359v2.941h5v-2.94c0.87-0.3 1.67-0.76 2.36-1.359l2.55 1.47 2.5-4.34-2.54-1.47c0.090-0.441 0.13-0.891 0.13-1.361zM12 15.5c-1.93 0-3.5-1.57-3.5-3.5s1.57-3.5 3.5-3.5c1.93 0 3.5 1.57 3.5 3.5s-1.57 3.5-3.5 3.5z"></path>
</svg>
