<?xml version="1.0" encoding="utf-8"?>
<!-- Generated by IcoMoon.io -->
<!DOCTYPE svg PUBLIC "-//W3C//DTD SVG 1.1//EN" "http://www.w3.org/Graphics/SVG/1.1/DTD/svg11.dtd">
<svg version="1.1" xmlns="http://www.w3.org/2000/svg" xmlns:xlink="http://www.w3.org/1999/xlink" width="24" height="24" viewBox="0 0 24 24">
<path fill="#2f323d" d="M12.3 20.626l-6.264-4.826h-2.836v-7.6h2.835l6.265-4.826v17.252zM4.8 14.2h1.781l4.12 3.174v-10.748l-4.12 3.174h-1.781v4.4z"></path>
<path fill="#2f323d" d="M15.684 16.788l-0.975-1.268c1.106-0.852 1.741-2.135 1.741-3.522s-0.635-2.672-1.742-3.523l0.977-1.269c1.503 1.157 2.365 2.903 2.365 4.792 0 1.888-0.862 3.634-2.366 4.79z"></path>
<path fill="#2f323d" d="M17.969 19.757l-0.977-1.268c2.039-1.569 3.208-3.935 3.208-6.491s-1.169-4.923-3.208-6.492l0.977-1.268c2.435 1.875 3.831 4.703 3.831 7.76s-1.397 5.885-3.831 7.759z"></path>
</svg>
